<svg id="Layer_1" data-name="Layer 1" xmlns="http://www.w3.org/2000/svg" viewBox="0 0 48 48"><defs><style>.cls-1{fill:#84b749;}.cls-2{fill:#b5e08c;}.cls-3{fill:#ffde76;}.cls-4{fill:#ffba55;}.cls-5{fill:#fff;}</style></defs><title>finance, money, coin, bill, cash, payment</title><rect class="cls-1" x="0.5" y="2.46" width="47" height="27.42"/><path class="cls-2" d="M40.65,27.92H7.35A4.89,4.89,0,0,0,2.46,23V9.31A4.89,4.89,0,0,0,7.35,4.42h33.3a4.89,4.89,0,0,0,4.89,4.89V23A4.89,4.89,0,0,0,40.65,27.92Z"/><ellipse class="cls-1" cx="24" cy="16.17" rx="6.85" ry="7.83"/><rect class="cls-1" x="34.77" y="13.23" width="6.85" height="1.96"/><rect class="cls-1" x="34.77" y="17.15" width="6.85" height="1.96"/><rect class="cls-1" x="6.38" y="13.23" width="6.85" height="1.96"/><rect class="cls-1" x="6.38" y="17.15" width="6.85" height="1.96"/><circle class="cls-3" cx="21.06" cy="36.73" r="8.81"/><circle class="cls-4" cx="21.06" cy="36.73" r="6.85"/><path class="cls-5" d="M20.57,34.77H24v-2H22v-2h-2v2a2.45,2.45,0,0,0,.58,4.85h.89a.48.48,0,0,1,.49.49.48.48,0,0,1-.49.49H18.12v2h2v2h2v-2a2.47,2.47,0,0,0,1.85-3.15,2.5,2.5,0,0,0-2.42-1.7h-.9a.49.49,0,0,1,0-1Z"/><rect class="cls-4" x="29.88" y="24.98" width="17.63" height="20.56"/><rect class="cls-3" x="29.88" y="39.67" width="17.63" height="2.94"/><rect class="cls-3" x="29.88" y="33.79" width="17.63" height="2.94"/><rect class="cls-3" x="29.88" y="27.92" width="17.63" height="2.94"/></svg>